 http://kastatic.com/i2/u/1813980/0aq32UMZvX.gif

Cover 
http://www.shotpix.com/images/06668843722562162095.jpg

General
Complete name                            : Flo Rida - I Cry [Music Video] 720p [Sbyky].mp4
Format                                   : MPEG-4
Format profile                           : Base Media / Version 2
Codec ID                                 : mp42
File size                                : 50.9 MiB
Duration                                 : 3mn 52s
Overall bit rate mode                    : Variable
Overall bit rate                         : 1 837 Kbps
Encoded date                             : UTC 2012-09-28 01:32:58
Tagged date                              : UTC 2012-09-28 01:32:58
gsst                                     : 0
gstd                                     : 232686
gssd                                     : B4A7D0083HH1357547691234632
gshh                                     :

Video
ID                                       : 1
Format                                   : AVC
Format/Info                              : Advanced Video Codec
Format profile                           : High@L3.1
Format settings, CABAC                   : Yes
Format settings, ReFrames                : 1 frame
Codec ID                                 : avc1
Codec ID/Info                            : Advanced Video Coding
Duration                                 : 3mn 52s
Bit rate                                 : 1 642 Kbps
Maximum bit rate                         : 8 476 Kbps
Width                                    : 1 280 pixels
Height                                   : 720 pixels
Display aspect ratio                     : 16:9
Frame rate mode                          : Constant
Frame rate                               : 23.976 fps
Color space                              : YUV
Chroma subsampling                       : 4:2:0
Bit depth                                : 8 bits
Scan type                                : Progressive
Bits/(Pixel*Frame)                       : 0.074
Stream size                              : 45.5 MiB (89%)
Tagged date                              : UTC 2012-09-28 01:32:58

Audio
ID                                       : 2
Format                                   : AAC
Format/Info                              : Advanced Audio Codec
Format profile                           : LC
Codec ID                                 : 40
Duration                                 : 3mn 52s
Bit rate mode                            : Variable
Bit rate                                 : 192 Kbps
Maximum bit rate                         : 201 Kbps
Channel(s)                               : 2 channels
Channel positions                        : Front: L R
Sampling rate                            : 44.1 KHz
Compression mode                         : Lossy
Stream size                              : 5.32 MiB (10%)
Title                                    : IsoMedia File Produced by Google, 5-11-2011
Encoded date                             : UTC 2012-09-28 01:32:58
Tagged date                              : UTC 2012-09-28 01:32:58

Shared By Sbyky 
http://kastatic.com/i2/u/1813980/bQg62viaEG.gif